<svg width="17" height="17" viewBox="0 0 17 17" fill="none" xmlns="http://www.w3.org/2000/svg">
<path fill-rule="evenodd" clip-rule="evenodd" d="M7.5 0C5.19882 0 3.33333 1.86548 3.33333 4.16667C3.33333 6.46785 5.19882 8.33333 7.5 8.33333C9.80117 8.33333 11.6667 6.46785 11.6667 4.16667C11.6667 1.86548 9.80117 0 7.5 0ZM5 4.16667C5 2.78596 6.11929 1.66667 7.5 1.66667C8.88075 1.66667 10 2.78596 10 4.16667C10 5.54737 8.88075 6.66667 7.5 6.66667C6.11929 6.66667 5 5.54737 5 4.16667ZM1.66667 13.75C1.66667 13.6005 1.74139 13.3426 2.01116 13.0011C2.27428 12.6679 2.68095 12.3112 3.22002 11.9823C4.29754 11.3248 5.81432 10.8333 7.5 10.8333C7.81283 10.8333 8.12033 10.8503 8.42067 10.8822C8.87833 10.9308 9.28875 10.5992 9.33733 10.1416C9.386 9.68392 9.05442 9.2735 8.59675 9.22483C8.23917 9.18683 7.87292 9.16667 7.5 9.16667C5.50377 9.16667 3.68722 9.74475 2.35189 10.5596C1.68452 10.9668 1.1149 11.4469 0.703308 11.9679C0.298375 12.4806 0 13.0942 0 13.75C0 14.4541 0.342617 15.0093 0.83555 15.4049C1.3027 15.7799 1.91818 16.028 2.57263 16.2013C3.88722 16.5494 5.64251 16.6667 7.5 16.6667L8.07117 16.6627C8.53133 16.6564 8.89917 16.2782 8.89283 15.8179C8.88642 15.3578 8.50817 14.9899 8.048 14.9963L7.5 15C5.67559 15 4.09755 14.881 2.99928 14.5902C2.4473 14.444 2.08647 14.2718 1.87892 14.1052C1.69714 13.9593 1.66667 13.8513 1.66667 13.75ZM13.3333 10C13.7936 10 14.1667 10.3731 14.1667 10.8333V12.5H15.8333C16.2936 12.5 16.6667 12.8731 16.6667 13.3333C16.6667 13.7936 16.2936 14.1667 15.8333 14.1667H14.1667V15.8333C14.1667 16.2936 13.7936 16.6667 13.3333 16.6667C12.8731 16.6667 12.5 16.2936 12.5 15.8333V14.1667H10.8333C10.3731 14.1667 10 13.7936 10 13.3333C10 12.8731 10.3731 12.5 10.8333 12.5H12.5V10.8333C12.5 10.3731 12.8731 10 13.3333 10Z" fill="#043960"/>
</svg>
