<svg width="16" height="16" viewBox="0 0 16 16" fill="none" xmlns="http://www.w3.org/2000/svg">
<path fill-rule="evenodd" clip-rule="evenodd" d="M0 2.5C0 1.11929 1.11929 0 2.5 0H13.3333C14.7141 0 15.8333 1.11929 15.8333 2.5V13.3333C15.8333 14.7141 14.7141 15.8333 13.3333 15.8333H2.5C1.11929 15.8333 0 14.7141 0 13.3333V2.5ZM14.1667 2.5V3.33333C14.1667 4.25381 13.4205 5 12.5 5C11.5795 5 10.8333 4.25381 10.8333 3.33333C10.8333 2.8731 10.4602 2.5 10 2.5C9.53975 2.5 9.16667 2.8731 9.16667 3.33333V3.75C9.16667 4.44036 8.607 5 7.91667 5C7.22633 5 6.66667 4.44036 6.66667 3.75V3.33333C6.66667 2.8731 6.29357 2.5 5.83333 2.5C5.3731 2.5 5 2.8731 5 3.33333C5 4.25381 4.25381 5 3.33333 5C2.41286 5 1.66667 4.25381 1.66667 3.33333V2.5C1.66667 2.03977 2.03977 1.66667 2.5 1.66667H13.3333C13.7936 1.66667 14.1667 2.03977 14.1667 2.5ZM12.5 6.66667C11.5663 6.66667 10.7224 6.28282 10.1173 5.66433C9.5825 6.27848 8.79492 6.66667 7.91667 6.66667C7.03842 6.66667 6.25081 6.27848 5.71609 5.66433C5.11096 6.28283 4.26697 6.66667 3.33333 6.66667C2.72619 6.66667 2.15696 6.50434 1.66667 6.22073V13.3333C1.66667 13.7936 2.03977 14.1667 2.5 14.1667H5V10.8333C5 9.45258 6.11929 8.33333 7.5 8.33333H8.33333C9.71408 8.33333 10.8333 9.45258 10.8333 10.8333V14.1667H13.3333C13.7936 14.1667 14.1667 13.7936 14.1667 13.3333V6.22073C13.6764 6.50434 13.1072 6.66667 12.5 6.66667ZM9.16667 14.1667V10.8333C9.16667 10.3731 8.79358 10 8.33333 10H7.5C7.03975 10 6.66667 10.3731 6.66667 10.8333V14.1667H9.16667Z" fill="#043960"/>
</svg>
