<svg width="40" height="40" viewBox="0 0 40 40" fill="none" xmlns="http://www.w3.org/2000/svg">
<path d="M0 20C0 8.95431 8.95431 0 20 0C31.0457 0 40 8.95431 40 20C40 31.0457 31.0457 40 20 40C8.95431 40 0 31.0457 0 20Z" fill="#F1F5F9"/>
<path d="M20.559 11.8479L27.6424 15.8062C28.0659 16.018 28.3334 16.4508 28.3334 16.9243V18.1251C28.3334 18.7004 27.867 19.1668 27.2917 19.1668H26.6667V25.8334H27.5C27.9603 25.8334 28.3334 26.2065 28.3334 26.6667C28.3334 27.127 27.9603 27.5 27.5 27.5H12.5C12.0398 27.5 11.6667 27.127 11.6667 26.6667C11.6667 26.2065 12.0398 25.8334 12.5 25.8334H13.3334V19.1668H12.7084C12.1331 19.1668 11.6667 18.7004 11.6667 18.1251V16.9243C11.6667 16.4903 11.8915 16.0904 12.2551 15.8637L19.441 11.8479C19.7929 11.672 20.2071 11.672 20.559 11.8479ZM25 19.1668H15V25.8334H17.5V20.8334H19.1667V25.8334H20.8334V20.8334H22.5V25.8334H25V19.1668ZM20 13.4318L13.3334 17.1818V17.5001H26.6667V17.1818L20 13.4318ZM20 15C20.4603 15 20.8334 15.3731 20.8334 15.8334C20.8334 16.2936 20.4603 16.6667 20 16.6667C19.5398 16.6667 19.1667 16.2936 19.1667 15.8334C19.1667 15.3731 19.5398 15 20 15Z" fill="#043960"/>
</svg>
