<svg width="32" height="32" viewBox="0 0 32 32" fill="none" xmlns="http://www.w3.org/2000/svg">
<path d="M18.667 30.7087C25.3176 30.7087 30.709 25.3173 30.709 18.6667C30.709 12.0161 25.3176 6.62469 18.667 6.62469C12.0164 6.62469 6.625 12.0161 6.625 18.6667C6.625 25.3173 12.0164 30.7087 18.667 30.7087Z" fill="#FFE082"/>
<path fill-rule="evenodd" clip-rule="evenodd" d="M4.66699 16C4.66699 9.74097 9.74128 4.66669 16.0003 4.66669C16.1612 4.66669 16.3229 4.67035 16.4867 4.67662C17.0386 4.69777 17.5031 4.26752 17.5243 3.71564C17.5454 3.16376 17.1152 2.69923 16.5633 2.67809C16.3791 2.67103 16.1914 2.66669 16.0003 2.66669C8.63671 2.66669 2.66699 8.6364 2.66699 16C2.66699 20.6034 5.0003 24.6613 8.54458 27.0554C9.00224 27.3645 9.62386 27.2441 9.93299 26.7864C10.2421 26.3288 10.1217 25.7072 9.66407 25.398C6.64701 23.3601 4.66699 19.9113 4.66699 16ZM21.8602 4.02003C21.3643 3.77696 20.7652 3.98193 20.5221 4.47785C20.2791 4.97376 20.484 5.57283 20.98 5.81591C24.7445 7.66109 27.3334 11.5294 27.3334 16C27.3334 22.259 22.2591 27.3333 16.0001 27.3333C15.7065 27.3333 15.416 27.3222 15.1293 27.3002C14.5786 27.258 14.0979 27.6701 14.0557 28.2208C14.0134 28.7714 14.4255 29.2521 14.9762 29.2944C15.3148 29.3204 15.6563 29.3333 16.0001 29.3333C23.3637 29.3333 29.3334 23.3636 29.3334 16C29.3334 10.7372 26.2837 6.18818 21.8602 4.02003ZM16 8.66669C16.5523 8.66669 17 9.1144 17 9.66669V17.6667C17 18.219 16.5523 18.6667 16 18.6667C15.4477 18.6667 15 18.219 15 17.6667V9.66669C15 9.1144 15.4477 8.66669 16 8.66669ZM17.3337 22C17.3337 22.7364 16.7367 23.3334 16.0003 23.3334C15.2639 23.3334 14.667 22.7364 14.667 22C14.667 21.2636 15.2639 20.6667 16.0003 20.6667C16.7367 20.6667 17.3337 21.2636 17.3337 22Z" fill="#043960"/>
</svg>
