<svg width="172" height="138" viewBox="0 0 172 138" fill="none" xmlns="http://www.w3.org/2000/svg">
<circle cx="87" cy="76" r="60" fill="#EEFBF2"/>
<circle cx="87" cy="76" r="38" fill="#D7F4DE"/>
<circle cx="118" cy="6" r="4" fill="#D7F4DE"/>
<circle cx="162" cy="123" r="6" fill="#D7F4DE"/>
<circle cx="163" cy="50" r="7" fill="#D7F4DE"/>
<circle cx="10" cy="108" r="8" fill="#D7F4DE"/>
<circle cx="20.5" cy="24.5" r="4.5" fill="#D7F4DE"/>
<path d="M105.917 71.4167L102.25 67.75C101.583 67.0833 100.583 67.0833 99.9166 67.75L86.9999 80.6667L82.5833 76.25C81.9166 75.5833 80.9166 75.5833 80.2499 76.25L76.5833 79.9167C75.9166 80.5833 75.9166 81.5833 76.5833 82.25L85.8333 91.5C86.4999 92.1667 87.4999 92.1667 88.1666 91.5L105.917 73.75C106.5 73.1667 106.5 72.0833 105.917 71.4167Z" fill="#97DEB1"/>
<path fill-rule="evenodd" clip-rule="evenodd" d="M95.6995 63.5328C96.8543 62.378 98.6457 62.378 99.8006 63.5328L103.467 67.1995C104.622 68.3543 104.622 70.1457 103.467 71.3006L85.7172 89.0506C84.5624 90.2054 82.7709 90.2054 81.6161 89.0506L78.2828 85.7172C77.7946 85.2291 77.7946 84.4376 78.2828 83.9495C78.7709 83.4613 79.5624 83.4613 80.0506 83.9495L83.3839 87.2828C83.4903 87.3892 83.592 87.4167 83.6667 87.4167C83.7414 87.4167 83.8431 87.3892 83.9495 87.2828L101.699 69.5328C101.806 69.4264 101.833 69.3247 101.833 69.25C101.833 69.1753 101.806 69.0736 101.699 68.9672L98.0328 65.3006C97.9264 65.1942 97.8247 65.1667 97.75 65.1667C97.6753 65.1667 97.5736 65.1942 97.4672 65.3006L94.5506 68.2172C94.0624 68.7054 93.2709 68.7054 92.7828 68.2172C92.2946 67.7291 92.2946 66.9376 92.7828 66.4495L95.6995 63.5328Z" fill="#043960"/>
<path fill-rule="evenodd" clip-rule="evenodd" d="M91.2172 69.7828C91.7054 70.271 91.7054 71.0624 91.2172 71.5506L84.5506 78.2172C84.3161 78.4517 83.9982 78.5834 83.6667 78.5834C83.3351 78.5834 83.0172 78.4517 82.7828 78.2172L78.3661 73.8006C78.2597 73.6942 78.158 73.6667 78.0833 73.6667C78.0086 73.6667 77.9069 73.6942 77.8006 73.8006L74.1339 77.4672C74.0275 77.5736 74 77.6753 74 77.75C74 77.8247 74.0275 77.9264 74.1339 78.0328L76.8839 80.7828C77.372 81.271 77.372 82.0624 76.8839 82.5506C76.3957 83.0387 75.6043 83.0387 75.1161 82.5506L72.3661 79.8006C71.2113 78.6457 71.2113 76.8543 72.3661 75.6995L76.0328 72.0328C77.1876 70.878 78.9791 70.878 80.1339 72.0328L83.6667 75.5656L89.4495 69.7828C89.9376 69.2946 90.7291 69.2946 91.2172 69.7828Z" fill="#043960"/>
</svg>
