<svg width="20" height="16" viewBox="0 0 20 16" fill="none" xmlns="http://www.w3.org/2000/svg">
<path d="M17 0C18.6569 0 20 1.34315 20 3V13C20 14.6569 18.6569 16 17 16H3C1.34315 16 0 14.6569 0 13V3C0 1.34315 1.34315 0 3 0H17ZM18 6H2V13C2 13.5128 2.38604 13.9355 2.88338 13.9933L3 14H17C17.5128 14 17.9355 13.614 17.9933 13.1166L18 13V6ZM15 9C15.5523 9 16 9.4477 16 10C16 10.5128 15.614 10.9355 15.1166 10.9933L15 11H12C11.4477 11 11 10.5523 11 10C11 9.48715 11.386 9.06449 11.8834 9.00673L12 9H15ZM17 2H3C2.44772 2 2 2.44772 2 3V4H18V3C18 2.44772 17.5523 2 17 2Z" fill="#33CAFF"/>
</svg>
